<!DOCTYPE svg PUBLIC "-//W3C//DTD SVG 1.1//EN" "http://www.w3.org/Graphics/SVG/1.1/DTD/svg11.dtd">
<!-- Uploaded to: SVG Repo, www.svgrepo.com, Transformed by: SVG Repo Mixer Tools -->
<svg fill="#ffffff" width="800px" height="800px" viewBox="-7.36 -7.36 46.72 46.72" version="1.1" xmlns="http://www.w3.org/2000/svg" stroke="#ffffff" stroke-width="0.9279999999999999" transform="matrix(1, 0, 0, 1, 0, 0)rotate(0)">
<g id="SVGRepo_bgCarrier" stroke-width="0">
<path transform="translate(-7.36, -7.36), scale(2.92)" fill="#0082ad" d="M9.166.33a2.25 2.25 0 00-2.332 0l-5.25 3.182A2.25 2.25 0 00.5 5.436v5.128a2.25 2.25 0 001.084 1.924l5.25 3.182a2.25 2.25 0 002.332 0l5.25-3.182a2.25 2.25 0 001.084-1.924V5.436a2.25 2.25 0 00-1.084-1.924L9.166.33z" strokewidth="0"/>
</g>
<g id="SVGRepo_tracerCarrier" stroke-linecap="round" stroke-linejoin="round"/>
<g id="SVGRepo_iconCarrier"> <title>m</title> <path d="M27.232 3.993h-0.799c-0 0-0 0-0.001 0-0.288 0-0.541 0.153-0.681 0.381l-0.002 0.003-9.75 16.058-9.748-16.058c-0.142-0.232-0.395-0.385-0.683-0.385-0 0-0 0-0.001 0h-0.799c-0.442 0-0.8 0.358-0.8 0.8v22.4c0 0.442 0.358 0.8 0.8 0.801h0.928c0.442-0.001 0.8-0.359 0.8-0.801v0-17.587l8.437 13.905c0.142 0.233 0.395 0.387 0.684 0.387h0.736c0.288-0 0.541-0.153 0.682-0.381l0.002-0.003 8.467-13.915v17.595c0.001 0.442 0.359 0.8 0.801 0.801h0.928c0.442-0.001 0.8-0.359 0.801-0.801v-22.4c-0.001-0.442-0.359-0.8-0.801-0.8v0z"/> </g>
</svg>